STARTFONT 2.1
FONT steinbeck
SIZE 8 75 75
FONTBOUNDINGBOX 12 8 0 -1
STARTPROPERTIES 0
ENDPROPERTIES
CHARS 264

STARTCHAR space
ENCODING 32
BBX 1 1 0 0
BITMAP
00
ENDCHAR

STARTCHAR exclam
ENCODING 33
BBX 1 6 0 0
BITMAP
80
80
80
80
00
80
ENDCHAR

STARTCHAR numbersign
ENCODING 35
BBX 5 5 0 0
BITMAP
50
F8
50
F8
50
ENDCHAR

STARTCHAR quotesingle
ENCODING 39
BBX 1 2 0 4
BITMAP
80
80
ENDCHAR

STARTCHAR one
ENCODING 49
BBX 2 6 1 0
BITMAP
40
C0
40
40
40
40
ENDCHAR
